<svg width="13" height="13" viewBox="0 0 13 13" fill="none" xmlns="http://www.w3.org/2000/svg">
<path fillRule="evenodd" clipRule="evenodd" d="M11.0003 5.33333C11.0003 7.17428 9.50794 8.66667 7.66699 8.66667C5.82604 8.66667 4.33366 7.17428 4.33366 5.33333C4.33366 3.49238 5.82604 2 7.66699 2C9.50794 2 11.0003 3.49238 11.0003 5.33333ZM13.0003 5.33333C13.0003 8.27885 10.6125 10.6667 7.66699 10.6667C6.55562 10.6667 5.52365 10.3267 4.66937 9.74517L2.3741 12.0404C1.98357 12.431 1.35041 12.431 0.959885 12.0404C0.569361 11.6499 0.569361 11.0168 0.959885 10.6262L3.25516 8.33095C2.67359 7.47668 2.33366 6.4447 2.33366 5.33333C2.33366 2.38781 4.72147 0 7.66699 0C10.6125 0 13.0003 2.38781 13.0003 5.33333Z" fill="#9AA8B7"/>
</svg>
